<mxfile host="Electron" agent="Mozilla/5.0 (Macintosh; Intel Mac OS X 10_15_7) AppleWebKit/537.36 (KHTML, like Gecko) draw.io/26.0.4 Chrome/128.0.6613.186 Electron/32.2.5 Safari/537.36" version="26.0.4">
  <diagram name="Page-1" id="dvHU78m33MaT3LorWUcg">
    <mxGraphModel dx="1195" dy="840" grid="1" gridSize="10" guides="1" tooltips="1" connect="1" arrows="1" fold="1" page="1" pageScale="1" pageWidth="850" pageHeight="1100" math="0" shadow="0">
      <root>
        <mxCell id="0" />
        <mxCell id="1" parent="0" />
        <mxCell id="HKxNsVTBjork6PeNNjC3-2" value="" style="rounded=0;whiteSpace=wrap;html=1;" vertex="1" parent="1">
          <mxGeometry x="80" y="280" width="210" height="200" as="geometry" />
        </mxCell>
        <mxCell id="HKxNsVTBjork6PeNNjC3-4" value="DEV" style="text;html=1;align=center;verticalAlign=middle;whiteSpace=wrap;rounded=0;" vertex="1" parent="1">
          <mxGeometry x="150" y="250" width="60" height="30" as="geometry" />
        </mxCell>
        <mxCell id="HKxNsVTBjork6PeNNjC3-5" value="" style="rounded=0;whiteSpace=wrap;html=1;" vertex="1" parent="1">
          <mxGeometry x="320" y="280" width="210" height="200" as="geometry" />
        </mxCell>
        <mxCell id="HKxNsVTBjork6PeNNjC3-6" value="cluster" style="aspect=fixed;sketch=0;html=1;dashed=0;whitespace=wrap;verticalLabelPosition=bottom;verticalAlign=top;fillColor=#2875E2;strokeColor=#ffffff;points=[[0.005,0.63,0],[0.1,0.2,0],[0.9,0.2,0],[0.5,0,0],[0.995,0.63,0],[0.72,0.99,0],[0.5,1,0],[0.28,0.99,0]];shape=mxgraph.kubernetes.icon2;prIcon=cronjob" vertex="1" parent="1">
          <mxGeometry x="352.09000000000003" y="300" width="145.83" height="140" as="geometry" />
        </mxCell>
        <mxCell id="HKxNsVTBjork6PeNNjC3-7" value="QA" style="text;html=1;align=center;verticalAlign=middle;whiteSpace=wrap;rounded=0;" vertex="1" parent="1">
          <mxGeometry x="390" y="250" width="60" height="30" as="geometry" />
        </mxCell>
        <mxCell id="HKxNsVTBjork6PeNNjC3-8" value="" style="rounded=0;whiteSpace=wrap;html=1;fillColor=#dae8fc;strokeColor=#6c8ebf;" vertex="1" parent="1">
          <mxGeometry x="560" y="280" width="210" height="200" as="geometry" />
        </mxCell>
        <mxCell id="HKxNsVTBjork6PeNNjC3-9" value="cluster" style="aspect=fixed;sketch=0;html=1;dashed=0;whitespace=wrap;verticalLabelPosition=bottom;verticalAlign=top;fillColor=#dae8fc;strokeColor=#6c8ebf;points=[[0.005,0.63,0],[0.1,0.2,0],[0.9,0.2,0],[0.5,0,0],[0.995,0.63,0],[0.72,0.99,0],[0.5,1,0],[0.28,0.99,0]];shape=mxgraph.kubernetes.icon2;prIcon=cronjob" vertex="1" parent="1">
          <mxGeometry x="592.09" y="300" width="145.83" height="140" as="geometry" />
        </mxCell>
        <mxCell id="HKxNsVTBjork6PeNNjC3-10" value="PRD" style="text;html=1;align=center;verticalAlign=middle;whiteSpace=wrap;rounded=0;" vertex="1" parent="1">
          <mxGeometry x="630" y="250" width="60" height="30" as="geometry" />
        </mxCell>
        <mxCell id="HKxNsVTBjork6PeNNjC3-13" value="" style="aspect=fixed;sketch=0;html=1;dashed=0;whitespace=wrap;verticalLabelPosition=bottom;verticalAlign=top;fillColor=#2875E2;strokeColor=#ffffff;points=[[0.005,0.63,0],[0.1,0.2,0],[0.9,0.2,0],[0.5,0,0],[0.995,0.63,0],[0.72,0.99,0],[0.5,1,0],[0.28,0.99,0]];shape=mxgraph.kubernetes.icon2;kubernetesLabel=1;prIcon=control_plane" vertex="1" parent="1">
          <mxGeometry x="100" y="290" width="50" height="48" as="geometry" />
        </mxCell>
        <mxCell id="HKxNsVTBjork6PeNNjC3-14" value="" style="aspect=fixed;sketch=0;html=1;dashed=0;whitespace=wrap;verticalLabelPosition=bottom;verticalAlign=top;fillColor=#2875E2;strokeColor=#ffffff;points=[[0.005,0.63,0],[0.1,0.2,0],[0.9,0.2,0],[0.5,0,0],[0.995,0.63,0],[0.72,0.99,0],[0.5,1,0],[0.28,0.99,0]];shape=mxgraph.kubernetes.icon2;kubernetesLabel=1;prIcon=node" vertex="1" parent="1">
          <mxGeometry x="90" y="400" width="50" height="48" as="geometry" />
        </mxCell>
        <mxCell id="HKxNsVTBjork6PeNNjC3-15" value="" style="aspect=fixed;sketch=0;html=1;dashed=0;whitespace=wrap;verticalLabelPosition=bottom;verticalAlign=top;fillColor=#2875E2;strokeColor=#ffffff;points=[[0.005,0.63,0],[0.1,0.2,0],[0.9,0.2,0],[0.5,0,0],[0.995,0.63,0],[0.72,0.99,0],[0.5,1,0],[0.28,0.99,0]];shape=mxgraph.kubernetes.icon2;kubernetesLabel=1;prIcon=node" vertex="1" parent="1">
          <mxGeometry x="140" y="400" width="50" height="48" as="geometry" />
        </mxCell>
        <mxCell id="HKxNsVTBjork6PeNNjC3-16" value="" style="aspect=fixed;sketch=0;html=1;dashed=0;whitespace=wrap;verticalLabelPosition=bottom;verticalAlign=top;fillColor=#2875E2;strokeColor=#ffffff;points=[[0.005,0.63,0],[0.1,0.2,0],[0.9,0.2,0],[0.5,0,0],[0.995,0.63,0],[0.72,0.99,0],[0.5,1,0],[0.28,0.99,0]];shape=mxgraph.kubernetes.icon2;kubernetesLabel=1;prIcon=node" vertex="1" parent="1">
          <mxGeometry x="190" y="400" width="50" height="48" as="geometry" />
        </mxCell>
        <mxCell id="HKxNsVTBjork6PeNNjC3-17" value="" style="aspect=fixed;sketch=0;html=1;dashed=0;whitespace=wrap;verticalLabelPosition=bottom;verticalAlign=top;fillColor=#2875E2;strokeColor=#ffffff;points=[[0.005,0.63,0],[0.1,0.2,0],[0.9,0.2,0],[0.5,0,0],[0.995,0.63,0],[0.72,0.99,0],[0.5,1,0],[0.28,0.99,0]];shape=mxgraph.kubernetes.icon2;kubernetesLabel=1;prIcon=node" vertex="1" parent="1">
          <mxGeometry x="240" y="400" width="50" height="48" as="geometry" />
        </mxCell>
        <mxCell id="HKxNsVTBjork6PeNNjC3-3" value="cluster" style="aspect=fixed;sketch=0;html=1;dashed=0;whitespace=wrap;verticalLabelPosition=bottom;verticalAlign=top;fillColor=#2875E2;strokeColor=#ffffff;points=[[0.005,0.63,0],[0.1,0.2,0],[0.9,0.2,0],[0.5,0,0],[0.995,0.63,0],[0.72,0.99,0],[0.5,1,0],[0.28,0.99,0]];shape=mxgraph.kubernetes.icon2;prIcon=cronjob" vertex="1" parent="1">
          <mxGeometry x="112.09" y="300" width="145.83" height="140" as="geometry" />
        </mxCell>
        <mxCell id="HKxNsVTBjork6PeNNjC3-18" value="k8s" style="rounded=1;whiteSpace=wrap;html=1;" vertex="1" parent="1">
          <mxGeometry x="360" y="10" width="120" height="60" as="geometry" />
        </mxCell>
        <mxCell id="HKxNsVTBjork6PeNNjC3-21" style="edgeStyle=orthogonalEdgeStyle;rounded=0;orthogonalLoop=1;jettySize=auto;html=1;" edge="1" parent="1" source="HKxNsVTBjork6PeNNjC3-19" target="HKxNsVTBjork6PeNNjC3-4">
          <mxGeometry relative="1" as="geometry" />
        </mxCell>
        <mxCell id="HKxNsVTBjork6PeNNjC3-22" style="edgeStyle=orthogonalEdgeStyle;rounded=0;orthogonalLoop=1;jettySize=auto;html=1;" edge="1" parent="1" source="HKxNsVTBjork6PeNNjC3-19" target="HKxNsVTBjork6PeNNjC3-7">
          <mxGeometry relative="1" as="geometry" />
        </mxCell>
        <mxCell id="HKxNsVTBjork6PeNNjC3-23" style="edgeStyle=orthogonalEdgeStyle;rounded=0;orthogonalLoop=1;jettySize=auto;html=1;" edge="1" parent="1" source="HKxNsVTBjork6PeNNjC3-19" target="HKxNsVTBjork6PeNNjC3-10">
          <mxGeometry relative="1" as="geometry" />
        </mxCell>
        <mxCell id="HKxNsVTBjork6PeNNjC3-19" value="kubectl get pods&amp;nbsp;" style="image;aspect=fixed;perimeter=ellipsePerimeter;html=1;align=center;shadow=0;dashed=0;spacingTop=3;image=img/lib/active_directory/generic_node.svg;" vertex="1" parent="1">
          <mxGeometry x="60" y="90" width="50" height="49" as="geometry" />
        </mxCell>
        <mxCell id="HKxNsVTBjork6PeNNjC3-20" value="~/.kube" style="rounded=1;whiteSpace=wrap;html=1;" vertex="1" parent="1">
          <mxGeometry x="137.92" y="20" width="62.08" height="20" as="geometry" />
        </mxCell>
        <mxCell id="HKxNsVTBjork6PeNNjC3-24" value="" style="aspect=fixed;sketch=0;html=1;dashed=0;whitespace=wrap;verticalLabelPosition=bottom;verticalAlign=top;fillColor=#2875E2;strokeColor=#ffffff;points=[[0.005,0.63,0],[0.1,0.2,0],[0.9,0.2,0],[0.5,0,0],[0.995,0.63,0],[0.72,0.99,0],[0.5,1,0],[0.28,0.99,0]];shape=mxgraph.kubernetes.icon2;kubernetesLabel=1;prIcon=control_plane" vertex="1" parent="1">
          <mxGeometry x="376.67" y="1420" width="83.33" height="80" as="geometry" />
        </mxCell>
        <mxCell id="HKxNsVTBjork6PeNNjC3-33" style="edgeStyle=orthogonalEdgeStyle;rounded=0;orthogonalLoop=1;jettySize=auto;html=1;" edge="1" parent="1" source="HKxNsVTBjork6PeNNjC3-26" target="HKxNsVTBjork6PeNNjC3-32">
          <mxGeometry relative="1" as="geometry">
            <Array as="points">
              <mxPoint x="110" y="1530" />
            </Array>
          </mxGeometry>
        </mxCell>
        <mxCell id="HKxNsVTBjork6PeNNjC3-34" value="200" style="edgeLabel;html=1;align=center;verticalAlign=middle;resizable=0;points=[];" vertex="1" connectable="0" parent="HKxNsVTBjork6PeNNjC3-33">
          <mxGeometry x="0.3503" y="3" relative="1" as="geometry">
            <mxPoint as="offset" />
          </mxGeometry>
        </mxCell>
        <mxCell id="HKxNsVTBjork6PeNNjC3-26" value="" style="aspect=fixed;sketch=0;html=1;dashed=0;whitespace=wrap;verticalLabelPosition=bottom;verticalAlign=top;fillColor=#2875E2;strokeColor=#ffffff;points=[[0.005,0.63,0],[0.1,0.2,0],[0.9,0.2,0],[0.5,0,0],[0.995,0.63,0],[0.72,0.99,0],[0.5,1,0],[0.28,0.99,0]];shape=mxgraph.kubernetes.icon2;kubernetesLabel=1;prIcon=api" vertex="1" parent="1">
          <mxGeometry x="137.5" y="1500" width="62.5" height="60" as="geometry" />
        </mxCell>
        <mxCell id="HKxNsVTBjork6PeNNjC3-27" value="154.52.15.1:2020/&lt;b&gt;v1/&lt;/b&gt;&lt;br&gt;154.52.15.1:2020/&lt;b&gt;apps/v1&lt;/b&gt;" style="text;html=1;align=left;verticalAlign=middle;whiteSpace=wrap;rounded=0;" vertex="1" parent="1">
          <mxGeometry x="80" y="1560" width="117.5" height="30" as="geometry" />
        </mxCell>
        <mxCell id="HKxNsVTBjork6PeNNjC3-28" value="&lt;div&gt;&lt;br&gt;&lt;/div&gt;&lt;div&gt;&lt;br&gt;&lt;/div&gt;&lt;div&gt;&lt;br&gt;&lt;/div&gt;&lt;div&gt;&lt;br&gt;&lt;/div&gt;&lt;div&gt;&lt;br&gt;&lt;/div&gt;pod.yml" style="shape=note;whiteSpace=wrap;html=1;backgroundOutline=1;darkOpacity=0.05;" vertex="1" parent="1">
          <mxGeometry x="390" y="1150" width="80" height="100" as="geometry" />
        </mxCell>
        <mxCell id="HKxNsVTBjork6PeNNjC3-31" style="edgeStyle=orthogonalEdgeStyle;rounded=0;orthogonalLoop=1;jettySize=auto;html=1;flowAnimation=1;fillColor=#f8cecc;strokeColor=#b85450;" edge="1" parent="1" source="HKxNsVTBjork6PeNNjC3-29" target="HKxNsVTBjork6PeNNjC3-26">
          <mxGeometry relative="1" as="geometry" />
        </mxCell>
        <mxCell id="HKxNsVTBjork6PeNNjC3-29" value="apiVersion: V1&lt;br&gt;kind : Pod" style="text;html=1;align=left;verticalAlign=middle;whiteSpace=wrap;rounded=0;" vertex="1" parent="1">
          <mxGeometry x="390" y="1185" width="80" height="30" as="geometry" />
        </mxCell>
        <mxCell id="HKxNsVTBjork6PeNNjC3-32" value="kubectl apply -f path" style="shape=process;whiteSpace=wrap;html=1;backgroundOutline=1;" vertex="1" parent="1">
          <mxGeometry x="105" y="1170" width="120" height="60" as="geometry" />
        </mxCell>
        <mxCell id="HKxNsVTBjork6PeNNjC3-35" value="" style="rounded=0;whiteSpace=wrap;html=1;" vertex="1" parent="1">
          <mxGeometry x="80" y="1640" width="330" height="410" as="geometry" />
        </mxCell>
        <mxCell id="HKxNsVTBjork6PeNNjC3-36" value="" style="aspect=fixed;sketch=0;html=1;dashed=0;whitespace=wrap;verticalLabelPosition=bottom;verticalAlign=top;fillColor=#2875E2;strokeColor=#ffffff;points=[[0.005,0.63,0],[0.1,0.2,0],[0.9,0.2,0],[0.5,0,0],[0.995,0.63,0],[0.72,0.99,0],[0.5,1,0],[0.28,0.99,0]];shape=mxgraph.kubernetes.icon2;kubernetesLabel=1;prIcon=node" vertex="1" parent="1">
          <mxGeometry x="210" y="2020" width="50" height="48" as="geometry" />
        </mxCell>
        <mxCell id="HKxNsVTBjork6PeNNjC3-37" value="" style="aspect=fixed;sketch=0;html=1;dashed=0;whitespace=wrap;verticalLabelPosition=bottom;verticalAlign=top;fillColor=#2875E2;strokeColor=#ffffff;points=[[0.005,0.63,0],[0.1,0.2,0],[0.9,0.2,0],[0.5,0,0],[0.995,0.63,0],[0.72,0.99,0],[0.5,1,0],[0.28,0.99,0]];shape=mxgraph.kubernetes.icon2;kubernetesLabel=1;prIcon=k_proxy" vertex="1" parent="1">
          <mxGeometry x="71.25" y="1620" width="50" height="48" as="geometry" />
        </mxCell>
        <mxCell id="HKxNsVTBjork6PeNNjC3-39" value="" style="image;sketch=0;aspect=fixed;html=1;points=[];align=center;fontSize=12;image=img/lib/mscae/Docker.svg;" vertex="1" parent="1">
          <mxGeometry x="100" y="2009" width="50" height="41" as="geometry" />
        </mxCell>
        <mxCell id="HKxNsVTBjork6PeNNjC3-40" value="" style="aspect=fixed;sketch=0;html=1;dashed=0;whitespace=wrap;verticalLabelPosition=bottom;verticalAlign=top;fillColor=#2875E2;strokeColor=#ffffff;points=[[0.005,0.63,0],[0.1,0.2,0],[0.9,0.2,0],[0.5,0,0],[0.995,0.63,0],[0.72,0.99,0],[0.5,1,0],[0.28,0.99,0]];shape=mxgraph.kubernetes.icon2;kubernetesLabel=1;prIcon=kubelet" vertex="1" parent="1">
          <mxGeometry x="360" y="1640" width="50" height="48" as="geometry" />
        </mxCell>
        <mxCell id="HKxNsVTBjork6PeNNjC3-41" value="&lt;div style=&quot;color: rgb(197, 200, 198); background-color: rgb(30, 30, 30); font-family: Menlo, Monaco, &amp;quot;Courier New&amp;quot;, monospace; font-weight: normal; font-size: 16px; line-height: 24px; white-space: pre;&quot;&gt;&lt;div&gt;&lt;span style=&quot;color: rgb(197, 200, 198);&quot;&gt;  &lt;/span&gt;&lt;span style=&quot;color: rgb(96, 137, 180);&quot;&gt;name&lt;/span&gt;&lt;span style=&quot;color: rgb(197, 200, 198);&quot;&gt;: &lt;/span&gt;&lt;span style=&quot;color: rgb(154, 168, 58);&quot;&gt;mongodb&lt;/span&gt;&lt;/div&gt;&lt;div&gt;&lt;span style=&quot;color: rgb(197, 200, 198);&quot;&gt;  &lt;/span&gt;&lt;span style=&quot;color: rgb(96, 137, 180);&quot;&gt;namespace&lt;/span&gt;&lt;span style=&quot;color: rgb(197, 200, 198);&quot;&gt;: &lt;/span&gt;&lt;span style=&quot;color: rgb(154, 168, 58);&quot;&gt;default&lt;/span&gt;&lt;/div&gt;&lt;div&gt;&lt;span style=&quot;color: rgb(197, 200, 198);&quot;&gt;  &lt;/span&gt;&lt;span style=&quot;color: rgb(96, 137, 180);&quot;&gt;labels&lt;/span&gt;&lt;span style=&quot;color: rgb(197, 200, 198);&quot;&gt;:&lt;/span&gt;&lt;/div&gt;&lt;div&gt;&lt;span style=&quot;color: rgb(197, 200, 198);&quot;&gt;    &lt;/span&gt;&lt;span style=&quot;color: rgb(96, 137, 180);&quot;&gt;app&lt;/span&gt;&lt;span style=&quot;color: rgb(197, 200, 198);&quot;&gt;: &lt;/span&gt;&lt;span style=&quot;color: rgb(154, 168, 58);&quot;&gt;mongodb&lt;br&gt;&lt;/span&gt;&lt;/div&gt;&lt;/div&gt;" style="text;whiteSpace=wrap;html=1;" vertex="1" parent="1">
          <mxGeometry x="420" y="1620" width="230" height="120" as="geometry" />
        </mxCell>
        <mxCell id="HKxNsVTBjork6PeNNjC3-43" value="&lt;font style=&quot;font-size: 10px;&quot;&gt;app: mongodb&lt;/font&gt;" style="shape=parallelogram;perimeter=parallelogramPerimeter;whiteSpace=wrap;html=1;fixedSize=1;fillColor=#fff2cc;strokeColor=#d6b656;size=12.5;" vertex="1" parent="1">
          <mxGeometry x="60" y="1812" width="72.5" height="20" as="geometry" />
        </mxCell>
        <mxCell id="HKxNsVTBjork6PeNNjC3-42" value="mongodb&lt;b&gt;-46e5&lt;/b&gt;" style="aspect=fixed;sketch=0;html=1;dashed=0;whitespace=wrap;verticalLabelPosition=bottom;verticalAlign=top;fillColor=#2875E2;strokeColor=#ffffff;points=[[0.005,0.63,0],[0.1,0.2,0],[0.9,0.2,0],[0.5,0,0],[0.995,0.63,0],[0.72,0.99,0],[0.5,1,0],[0.28,0.99,0]];shape=mxgraph.kubernetes.icon2;kubernetesLabel=1;prIcon=pod" vertex="1" parent="1">
          <mxGeometry x="100" y="1822" width="50" height="48" as="geometry" />
        </mxCell>
        <mxCell id="HKxNsVTBjork6PeNNjC3-47" value="&lt;div style=&quot;color: rgb(197, 200, 198); background-color: rgb(30, 30, 30); font-family: Menlo, Monaco, &amp;quot;Courier New&amp;quot;, monospace; font-weight: normal; font-size: 16px; line-height: 24px; white-space: pre;&quot;&gt;&lt;div&gt;&lt;span style=&quot;color: rgb(96, 137, 180);&quot;&gt;containers&lt;/span&gt;&lt;span style=&quot;color: rgb(197, 200, 198);&quot;&gt;:&lt;/span&gt;&lt;/div&gt;&lt;div&gt;&lt;span style=&quot;color: rgb(197, 200, 198);&quot;&gt;    - &lt;/span&gt;&lt;span style=&quot;color: rgb(96, 137, 180);&quot;&gt;name&lt;/span&gt;&lt;span style=&quot;color: rgb(197, 200, 198);&quot;&gt;: &lt;/span&gt;&lt;span style=&quot;color: rgb(154, 168, 58);&quot;&gt;mongodb-container&lt;/span&gt;&lt;/div&gt;&lt;div&gt;&lt;span style=&quot;color: rgb(197, 200, 198);&quot;&gt;      &lt;/span&gt;&lt;span style=&quot;color: rgb(96, 137, 180);&quot;&gt;image&lt;/span&gt;&lt;span style=&quot;color: rgb(197, 200, 198);&quot;&gt;: &lt;/span&gt;&lt;span style=&quot;color: rgb(154, 168, 58);&quot;&gt;mongo:9.1&lt;/span&gt;&lt;/div&gt;&lt;div&gt;&lt;span style=&quot;color: rgb(197, 200, 198);&quot;&gt;      &lt;/span&gt;&lt;span style=&quot;color: rgb(96, 137, 180);&quot;&gt;ports&lt;/span&gt;&lt;span style=&quot;color: rgb(197, 200, 198);&quot;&gt;:&lt;/span&gt;&lt;/div&gt;&lt;div&gt;&lt;span style=&quot;color: rgb(197, 200, 198);&quot;&gt;        - &lt;/span&gt;&lt;span style=&quot;color: rgb(96, 137, 180);&quot;&gt;containerPort&lt;/span&gt;&lt;span style=&quot;color: rgb(197, 200, 198);&quot;&gt;: &lt;/span&gt;&lt;span style=&quot;color: rgb(96, 137, 180);&quot;&gt;27017&lt;/span&gt;&lt;/div&gt;&lt;div&gt;&lt;span style=&quot;color: rgb(197, 200, 198);&quot;&gt;      &lt;/span&gt;&lt;span style=&quot;color: rgb(96, 137, 180);&quot;&gt;env&lt;/span&gt;&lt;span style=&quot;color: rgb(197, 200, 198);&quot;&gt;:&lt;/span&gt;&lt;/div&gt;&lt;div&gt;&lt;span style=&quot;color: rgb(197, 200, 198);&quot;&gt;        - &lt;/span&gt;&lt;span style=&quot;color: rgb(96, 137, 180);&quot;&gt;name&lt;/span&gt;&lt;span style=&quot;color: rgb(197, 200, 198);&quot;&gt;: &lt;/span&gt;&lt;span style=&quot;color: rgb(154, 168, 58);&quot;&gt;MONGO_INITDB_ROOT_USERNAME&lt;/span&gt;&lt;/div&gt;&lt;div&gt;&lt;span style=&quot;color: rgb(197, 200, 198);&quot;&gt;          &lt;/span&gt;&lt;span style=&quot;color: rgb(96, 137, 180);&quot;&gt;value&lt;/span&gt;&lt;span style=&quot;color: rgb(197, 200, 198);&quot;&gt;: &lt;/span&gt;&lt;span style=&quot;color: rgb(154, 168, 58);&quot;&gt;hodi&lt;/span&gt;&lt;/div&gt;&lt;div&gt;&lt;span style=&quot;color: rgb(197, 200, 198);&quot;&gt;        - &lt;/span&gt;&lt;span style=&quot;color: rgb(96, 137, 180);&quot;&gt;name&lt;/span&gt;&lt;span style=&quot;color: rgb(197, 200, 198);&quot;&gt;: &lt;/span&gt;&lt;span style=&quot;color: rgb(154, 168, 58);&quot;&gt;MONGO_INITDB_ROOT_PASSWORD&lt;/span&gt;&lt;/div&gt;&lt;div&gt;&lt;span style=&quot;color: rgb(197, 200, 198);&quot;&gt;          &lt;/span&gt;&lt;span style=&quot;color: rgb(96, 137, 180);&quot;&gt;value&lt;/span&gt;&lt;span style=&quot;color: rgb(197, 200, 198);&quot;&gt;: &lt;/span&gt;&lt;span style=&quot;color: rgb(154, 168, 58);&quot;&gt;hodi&lt;/span&gt;&lt;/div&gt;&lt;/div&gt;" style="text;whiteSpace=wrap;html=1;" vertex="1" parent="1">
          <mxGeometry x="420" y="1808" width="410" height="260" as="geometry" />
        </mxCell>
        <mxCell id="HKxNsVTBjork6PeNNjC3-49" style="edgeStyle=orthogonalEdgeStyle;rounded=0;orthogonalLoop=1;jettySize=auto;html=1;entryX=0.5;entryY=1;entryDx=0;entryDy=0;entryPerimeter=0;" edge="1" parent="1" source="HKxNsVTBjork6PeNNjC3-39" target="HKxNsVTBjork6PeNNjC3-42">
          <mxGeometry relative="1" as="geometry" />
        </mxCell>
        <mxCell id="HKxNsVTBjork6PeNNjC3-50" value="&lt;div style=&quot;color: rgb(197, 200, 198); background-color: rgb(30, 30, 30); font-family: Menlo, Monaco, &amp;quot;Courier New&amp;quot;, monospace; font-weight: normal; font-size: 16px; line-height: 24px; white-space: pre;&quot;&gt;&lt;div&gt;&lt;span style=&quot;color: rgb(154, 155, 153);&quot;&gt;docker run --name hodi /&lt;br/&gt;-e MONGO_INITDB_ROOT_USERNAME=hodi /&lt;br/&gt;-e MONGO_INITDB_ROOT_PASSWORD=hodi /&lt;br/&gt;mongo&lt;/span&gt;&lt;/div&gt;&lt;/div&gt;" style="text;whiteSpace=wrap;html=1;" vertex="1" parent="1">
          <mxGeometry x="60" y="2080" width="350" height="110" as="geometry" />
        </mxCell>
        <mxCell id="HKxNsVTBjork6PeNNjC3-52" value="" style="edgeStyle=orthogonalEdgeStyle;rounded=0;orthogonalLoop=1;jettySize=auto;html=1;entryX=0.5;entryY=0;entryDx=0;entryDy=0;shape=link;entryPerimeter=0;" edge="1" parent="1" source="HKxNsVTBjork6PeNNjC3-40" target="HKxNsVTBjork6PeNNjC3-51">
          <mxGeometry relative="1" as="geometry">
            <mxPoint x="360" y="1664" as="sourcePoint" />
            <mxPoint x="126" y="1720" as="targetPoint" />
            <Array as="points">
              <mxPoint x="245" y="1664" />
            </Array>
          </mxGeometry>
        </mxCell>
        <mxCell id="HKxNsVTBjork6PeNNjC3-64" style="edgeStyle=orthogonalEdgeStyle;rounded=0;orthogonalLoop=1;jettySize=auto;html=1;entryX=0.75;entryY=0;entryDx=0;entryDy=0;sketch=1;curveFitting=1;jiggle=2;dashed=1;fillColor=#f8cecc;strokeColor=#b85450;" edge="1" parent="1" source="HKxNsVTBjork6PeNNjC3-51" target="HKxNsVTBjork6PeNNjC3-62">
          <mxGeometry relative="1" as="geometry">
            <Array as="points">
              <mxPoint x="291" y="1764" />
            </Array>
          </mxGeometry>
        </mxCell>
        <mxCell id="HKxNsVTBjork6PeNNjC3-51" value="mongo-rs" style="aspect=fixed;sketch=0;html=1;dashed=0;whitespace=wrap;verticalLabelPosition=bottom;verticalAlign=top;fillColor=#2875E2;strokeColor=#ffffff;points=[[0.005,0.63,0],[0.1,0.2,0],[0.9,0.2,0],[0.5,0,0],[0.995,0.63,0],[0.72,0.99,0],[0.5,1,0],[0.28,0.99,0]];shape=mxgraph.kubernetes.icon2;kubernetesLabel=1;prIcon=rs" vertex="1" parent="1">
          <mxGeometry x="220" y="1740" width="50" height="48" as="geometry" />
        </mxCell>
        <mxCell id="HKxNsVTBjork6PeNNjC3-53" style="edgeStyle=orthogonalEdgeStyle;rounded=0;orthogonalLoop=1;jettySize=auto;html=1;entryX=0.5;entryY=0;entryDx=0;entryDy=0;entryPerimeter=0;" edge="1" parent="1" source="HKxNsVTBjork6PeNNjC3-51" target="HKxNsVTBjork6PeNNjC3-42">
          <mxGeometry relative="1" as="geometry" />
        </mxCell>
        <mxCell id="HKxNsVTBjork6PeNNjC3-57" value="&lt;font style=&quot;font-size: 10px;&quot;&gt;app: mongodb&lt;/font&gt;" style="shape=parallelogram;perimeter=parallelogramPerimeter;whiteSpace=wrap;html=1;fixedSize=1;fillColor=#fff2cc;strokeColor=#d6b656;size=12.5;" vertex="1" parent="1">
          <mxGeometry x="167.5" y="1812" width="72.5" height="20" as="geometry" />
        </mxCell>
        <mxCell id="HKxNsVTBjork6PeNNjC3-58" value="&lt;font style=&quot;font-size: 10px;&quot;&gt;app: mongodb&lt;/font&gt;" style="shape=parallelogram;perimeter=parallelogramPerimeter;whiteSpace=wrap;html=1;fixedSize=1;fillColor=#fff2cc;strokeColor=#d6b656;size=12.5;" vertex="1" parent="1">
          <mxGeometry x="290" y="1812" width="72.5" height="20" as="geometry" />
        </mxCell>
        <mxCell id="HKxNsVTBjork6PeNNjC3-54" value="mongodb&lt;b&gt;-ertyfuyg&lt;/b&gt;" style="aspect=fixed;sketch=0;html=1;dashed=0;whitespace=wrap;verticalLabelPosition=bottom;verticalAlign=top;fillColor=#2875E2;strokeColor=#ffffff;points=[[0.005,0.63,0],[0.1,0.2,0],[0.9,0.2,0],[0.5,0,0],[0.995,0.63,0],[0.72,0.99,0],[0.5,1,0],[0.28,0.99,0]];shape=mxgraph.kubernetes.icon2;kubernetesLabel=1;prIcon=pod" vertex="1" parent="1">
          <mxGeometry x="210" y="1822" width="50" height="48" as="geometry" />
        </mxCell>
        <mxCell id="HKxNsVTBjork6PeNNjC3-55" value="mongodb&lt;b&gt;-tuyigh&lt;/b&gt;" style="aspect=fixed;sketch=0;html=1;dashed=0;whitespace=wrap;verticalLabelPosition=bottom;verticalAlign=top;fillColor=#2875E2;strokeColor=#ffffff;points=[[0.005,0.63,0],[0.1,0.2,0],[0.9,0.2,0],[0.5,0,0],[0.995,0.63,0],[0.72,0.99,0],[0.5,1,0],[0.28,0.99,0]];shape=mxgraph.kubernetes.icon2;kubernetesLabel=1;prIcon=pod" vertex="1" parent="1">
          <mxGeometry x="326.67" y="1822" width="50" height="48" as="geometry" />
        </mxCell>
        <mxCell id="HKxNsVTBjork6PeNNjC3-59" style="edgeStyle=orthogonalEdgeStyle;rounded=0;orthogonalLoop=1;jettySize=auto;html=1;entryX=0.74;entryY=0.295;entryDx=0;entryDy=0;entryPerimeter=0;" edge="1" parent="1" source="HKxNsVTBjork6PeNNjC3-51" target="HKxNsVTBjork6PeNNjC3-54">
          <mxGeometry relative="1" as="geometry" />
        </mxCell>
        <mxCell id="HKxNsVTBjork6PeNNjC3-61" style="edgeStyle=orthogonalEdgeStyle;rounded=0;orthogonalLoop=1;jettySize=auto;html=1;entryX=0.5;entryY=0;entryDx=0;entryDy=0;entryPerimeter=0;flowAnimation=0;sketch=1;curveFitting=1;jiggle=2;dashed=1;" edge="1" parent="1" source="HKxNsVTBjork6PeNNjC3-51" target="HKxNsVTBjork6PeNNjC3-55">
          <mxGeometry relative="1" as="geometry" />
        </mxCell>
        <mxCell id="HKxNsVTBjork6PeNNjC3-62" value="&lt;font style=&quot;font-size: 10px;&quot;&gt;app: mongodb&lt;/font&gt;" style="shape=parallelogram;perimeter=parallelogramPerimeter;whiteSpace=wrap;html=1;fixedSize=1;fillColor=#f8cecc;strokeColor=#b85450;size=12.5;" vertex="1" parent="1">
          <mxGeometry x="236.67" y="1922" width="72.5" height="20" as="geometry" />
        </mxCell>
        <mxCell id="HKxNsVTBjork6PeNNjC3-63" value="mongodb&lt;b&gt;-46e5&lt;/b&gt;" style="aspect=fixed;sketch=0;html=1;dashed=0;whitespace=wrap;verticalLabelPosition=bottom;verticalAlign=top;fillColor=#f8cecc;strokeColor=#b85450;points=[[0.005,0.63,0],[0.1,0.2,0],[0.9,0.2,0],[0.5,0,0],[0.995,0.63,0],[0.72,0.99,0],[0.5,1,0],[0.28,0.99,0]];shape=mxgraph.kubernetes.icon2;kubernetesLabel=1;prIcon=pod" vertex="1" parent="1">
          <mxGeometry x="276.66999999999996" y="1932" width="50" height="48" as="geometry" />
        </mxCell>
        <mxCell id="HKxNsVTBjork6PeNNjC3-65" value="" style="aspect=fixed;sketch=0;html=1;dashed=0;whitespace=wrap;verticalLabelPosition=bottom;verticalAlign=top;fillColor=#2875E2;strokeColor=#ffffff;points=[[0.005,0.63,0],[0.1,0.2,0],[0.9,0.2,0],[0.5,0,0],[0.995,0.63,0],[0.72,0.99,0],[0.5,1,0],[0.28,0.99,0]];shape=mxgraph.kubernetes.icon2;kubernetesLabel=1;prIcon=deploy" vertex="1" parent="1">
          <mxGeometry x="220" y="1668" width="50" height="48" as="geometry" />
        </mxCell>
        <mxCell id="HKxNsVTBjork6PeNNjC3-69" value="" style="rounded=0;whiteSpace=wrap;html=1;fillColor=#dae8fc;strokeColor=#6c8ebf;" vertex="1" parent="1">
          <mxGeometry x="560" y="500" width="210" height="200" as="geometry" />
        </mxCell>
        <mxCell id="HKxNsVTBjork6PeNNjC3-70" value="cluster" style="aspect=fixed;sketch=0;html=1;dashed=0;whitespace=wrap;verticalLabelPosition=bottom;verticalAlign=top;fillColor=#dae8fc;strokeColor=#6c8ebf;points=[[0.005,0.63,0],[0.1,0.2,0],[0.9,0.2,0],[0.5,0,0],[0.995,0.63,0],[0.72,0.99,0],[0.5,1,0],[0.28,0.99,0]];shape=mxgraph.kubernetes.icon2;prIcon=cronjob" vertex="1" parent="1">
          <mxGeometry x="592.09" y="520" width="145.83" height="140" as="geometry" />
        </mxCell>
        <mxCell id="HKxNsVTBjork6PeNNjC3-71" value="" style="rounded=0;whiteSpace=wrap;html=1;fillColor=#dae8fc;strokeColor=#6c8ebf;" vertex="1" parent="1">
          <mxGeometry x="560" y="730" width="210" height="200" as="geometry" />
        </mxCell>
        <mxCell id="HKxNsVTBjork6PeNNjC3-72" value="cluster" style="aspect=fixed;sketch=0;html=1;dashed=0;whitespace=wrap;verticalLabelPosition=bottom;verticalAlign=top;fillColor=#dae8fc;strokeColor=#6c8ebf;points=[[0.005,0.63,0],[0.1,0.2,0],[0.9,0.2,0],[0.5,0,0],[0.995,0.63,0],[0.72,0.99,0],[0.5,1,0],[0.28,0.99,0]];shape=mxgraph.kubernetes.icon2;prIcon=cronjob" vertex="1" parent="1">
          <mxGeometry x="592.09" y="750" width="145.83" height="140" as="geometry" />
        </mxCell>
        <mxCell id="HKxNsVTBjork6PeNNjC3-78" value="mongo app" style="rounded=1;whiteSpace=wrap;html=1;" vertex="1" parent="1">
          <mxGeometry x="389.98999999999995" y="2230" width="120" height="60" as="geometry" />
        </mxCell>
        <mxCell id="HKxNsVTBjork6PeNNjC3-79" value="" style="rounded=0;whiteSpace=wrap;html=1;" vertex="1" parent="1">
          <mxGeometry x="101.67" y="2296" width="670" height="100" as="geometry" />
        </mxCell>
        <mxCell id="HKxNsVTBjork6PeNNjC3-80" value="" style="rounded=0;whiteSpace=wrap;html=1;" vertex="1" parent="1">
          <mxGeometry x="80" y="2450" width="365" height="470" as="geometry" />
        </mxCell>
        <mxCell id="HKxNsVTBjork6PeNNjC3-81" value="" style="rounded=0;whiteSpace=wrap;html=1;" vertex="1" parent="1">
          <mxGeometry x="460" y="2450" width="365" height="470" as="geometry" />
        </mxCell>
        <mxCell id="HKxNsVTBjork6PeNNjC3-82" value="" style="aspect=fixed;sketch=0;html=1;dashed=0;whitespace=wrap;verticalLabelPosition=bottom;verticalAlign=top;fillColor=#2875E2;strokeColor=#ffffff;points=[[0.005,0.63,0],[0.1,0.2,0],[0.9,0.2,0],[0.5,0,0],[0.995,0.63,0],[0.72,0.99,0],[0.5,1,0],[0.28,0.99,0]];shape=mxgraph.kubernetes.icon2;kubernetesLabel=1;prIcon=node" vertex="1" parent="1">
          <mxGeometry x="640" y="2900" width="50" height="48" as="geometry" />
        </mxCell>
        <mxCell id="HKxNsVTBjork6PeNNjC3-83" value="ip" style="aspect=fixed;sketch=0;html=1;dashed=0;whitespace=wrap;verticalLabelPosition=bottom;verticalAlign=top;fillColor=#2875E2;strokeColor=#ffffff;points=[[0.005,0.63,0],[0.1,0.2,0],[0.9,0.2,0],[0.5,0,0],[0.995,0.63,0],[0.72,0.99,0],[0.5,1,0],[0.28,0.99,0]];shape=mxgraph.kubernetes.icon2;kubernetesLabel=1;prIcon=node" vertex="1" parent="1">
          <mxGeometry x="226.25" y="2900" width="50" height="48" as="geometry" />
        </mxCell>
        <mxCell id="HKxNsVTBjork6PeNNjC3-85" value="" style="aspect=fixed;sketch=0;html=1;dashed=0;whitespace=wrap;verticalLabelPosition=bottom;verticalAlign=top;fillColor=#2875E2;strokeColor=#ffffff;points=[[0.005,0.63,0],[0.1,0.2,0],[0.9,0.2,0],[0.5,0,0],[0.995,0.63,0],[0.72,0.99,0],[0.5,1,0],[0.28,0.99,0]];shape=mxgraph.kubernetes.icon2;kubernetesLabel=1;prIcon=control_plane" vertex="1" parent="1">
          <mxGeometry x="392.92" y="2300" width="93.75" height="90" as="geometry" />
        </mxCell>
        <mxCell id="HKxNsVTBjork6PeNNjC3-87" value="" style="aspect=fixed;sketch=0;html=1;dashed=0;whitespace=wrap;verticalLabelPosition=bottom;verticalAlign=top;fillColor=#2875E2;strokeColor=#ffffff;points=[[0.005,0.63,0],[0.1,0.2,0],[0.9,0.2,0],[0.5,0,0],[0.995,0.63,0],[0.72,0.99,0],[0.5,1,0],[0.28,0.99,0]];shape=mxgraph.kubernetes.icon2;kubernetesLabel=1;prIcon=deploy" vertex="1" parent="1">
          <mxGeometry y="2830" width="52.08" height="50" as="geometry" />
        </mxCell>
        <mxCell id="HKxNsVTBjork6PeNNjC3-88" value="" style="aspect=fixed;sketch=0;html=1;dashed=0;whitespace=wrap;verticalLabelPosition=bottom;verticalAlign=top;fillColor=#2875E2;strokeColor=#ffffff;points=[[0.005,0.63,0],[0.1,0.2,0],[0.9,0.2,0],[0.5,0,0],[0.995,0.63,0],[0.72,0.99,0],[0.5,1,0],[0.28,0.99,0]];shape=mxgraph.kubernetes.icon2;kubernetesLabel=1;prIcon=rs" vertex="1" parent="1">
          <mxGeometry x="60.000000000000014" y="2860" width="41.67" height="40" as="geometry" />
        </mxCell>
        <mxCell id="HKxNsVTBjork6PeNNjC3-93" value="" style="rounded=1;whiteSpace=wrap;html=1;fillColor=#d5e8d4;strokeColor=#82b366;opacity=20;" vertex="1" parent="1">
          <mxGeometry x="80" y="2796" width="740" height="60" as="geometry" />
        </mxCell>
        <mxCell id="HKxNsVTBjork6PeNNjC3-89" value="" style="aspect=fixed;sketch=0;html=1;dashed=0;whitespace=wrap;verticalLabelPosition=bottom;verticalAlign=top;fillColor=#2875E2;strokeColor=#ffffff;points=[[0.005,0.63,0],[0.1,0.2,0],[0.9,0.2,0],[0.5,0,0],[0.995,0.63,0],[0.72,0.99,0],[0.5,1,0],[0.28,0.99,0]];shape=mxgraph.kubernetes.icon2;kubernetesLabel=1;prIcon=rs" vertex="1" parent="1">
          <mxGeometry x="60.000000000000014" y="2810" width="41.67" height="40" as="geometry" />
        </mxCell>
        <mxCell id="HKxNsVTBjork6PeNNjC3-188" style="edgeStyle=orthogonalEdgeStyle;rounded=0;orthogonalLoop=1;jettySize=auto;html=1;" edge="1" parent="1" source="HKxNsVTBjork6PeNNjC3-90" target="HKxNsVTBjork6PeNNjC3-186">
          <mxGeometry relative="1" as="geometry">
            <Array as="points">
              <mxPoint x="143" y="2826" />
            </Array>
          </mxGeometry>
        </mxCell>
        <mxCell id="HKxNsVTBjork6PeNNjC3-90" value="mongodb" style="aspect=fixed;sketch=0;html=1;dashed=0;whitespace=wrap;verticalLabelPosition=bottom;verticalAlign=top;fillColor=#2875E2;strokeColor=#ffffff;points=[[0.005,0.63,0],[0.1,0.2,0],[0.9,0.2,0],[0.5,0,0],[0.995,0.63,0],[0.72,0.99,0],[0.5,1,0],[0.28,0.99,0]];shape=mxgraph.kubernetes.icon2;kubernetesLabel=1;prIcon=pod" vertex="1" parent="1">
          <mxGeometry x="150" y="2802" width="50" height="48" as="geometry" />
        </mxCell>
        <mxCell id="HKxNsVTBjork6PeNNjC3-91" value="mongodb&lt;br&gt;ip 11.42.55.199" style="aspect=fixed;sketch=0;html=1;dashed=0;whitespace=wrap;verticalLabelPosition=bottom;verticalAlign=top;fillColor=#2875E2;strokeColor=#ffffff;points=[[0.005,0.63,0],[0.1,0.2,0],[0.9,0.2,0],[0.5,0,0],[0.995,0.63,0],[0.72,0.99,0],[0.5,1,0],[0.28,0.99,0]];shape=mxgraph.kubernetes.icon2;kubernetesLabel=1;prIcon=pod" vertex="1" parent="1">
          <mxGeometry x="226.67000000000002" y="2802" width="50" height="48" as="geometry" />
        </mxCell>
        <mxCell id="HKxNsVTBjork6PeNNjC3-92" value="mongodb" style="aspect=fixed;sketch=0;html=1;dashed=0;whitespace=wrap;verticalLabelPosition=bottom;verticalAlign=top;fillColor=#2875E2;strokeColor=#ffffff;points=[[0.005,0.63,0],[0.1,0.2,0],[0.9,0.2,0],[0.5,0,0],[0.995,0.63,0],[0.72,0.99,0],[0.5,1,0],[0.28,0.99,0]];shape=mxgraph.kubernetes.icon2;kubernetesLabel=1;prIcon=pod" vertex="1" parent="1">
          <mxGeometry x="560" y="2802" width="50" height="48" as="geometry" />
        </mxCell>
        <mxCell id="HKxNsVTBjork6PeNNjC3-94" value="" style="aspect=fixed;sketch=0;html=1;dashed=0;whitespace=wrap;verticalLabelPosition=bottom;verticalAlign=top;fillColor=#f8cecc;strokeColor=#b85450;points=[[0.005,0.63,0],[0.1,0.2,0],[0.9,0.2,0],[0.5,0,0],[0.995,0.63,0],[0.72,0.99,0],[0.5,1,0],[0.28,0.99,0]];shape=mxgraph.kubernetes.icon2;kubernetesLabel=1;prIcon=deploy" vertex="1" parent="1">
          <mxGeometry x="19.17" y="2510" width="52.08" height="50" as="geometry" />
        </mxCell>
        <mxCell id="HKxNsVTBjork6PeNNjC3-95" value="" style="aspect=fixed;sketch=0;html=1;dashed=0;whitespace=wrap;verticalLabelPosition=bottom;verticalAlign=top;fillColor=#f8cecc;strokeColor=#b85450;points=[[0.005,0.63,0],[0.1,0.2,0],[0.9,0.2,0],[0.5,0,0],[0.995,0.63,0],[0.72,0.99,0],[0.5,1,0],[0.28,0.99,0]];shape=mxgraph.kubernetes.icon2;kubernetesLabel=1;prIcon=rs" vertex="1" parent="1">
          <mxGeometry x="64.17000000000002" y="2490" width="41.67" height="40" as="geometry" />
        </mxCell>
        <mxCell id="HKxNsVTBjork6PeNNjC3-96" value="" style="rounded=1;whiteSpace=wrap;html=1;fillColor=#f8cecc;strokeColor=#b85450;opacity=20;" vertex="1" parent="1">
          <mxGeometry x="80" y="2480" width="740" height="60" as="geometry" />
        </mxCell>
        <mxCell id="HKxNsVTBjork6PeNNjC3-110" style="edgeStyle=orthogonalEdgeStyle;rounded=0;orthogonalLoop=1;jettySize=auto;html=1;flowAnimation=1;" edge="1" parent="1" source="HKxNsVTBjork6PeNNjC3-97" target="HKxNsVTBjork6PeNNjC3-103">
          <mxGeometry relative="1" as="geometry">
            <Array as="points">
              <mxPoint x="251" y="2610" />
              <mxPoint x="450" y="2610" />
            </Array>
          </mxGeometry>
        </mxCell>
        <mxCell id="HKxNsVTBjork6PeNNjC3-97" value="" style="aspect=fixed;sketch=0;html=1;dashed=0;whitespace=wrap;verticalLabelPosition=bottom;verticalAlign=top;fillColor=#f8cecc;strokeColor=#b85450;points=[[0.005,0.63,0],[0.1,0.2,0],[0.9,0.2,0],[0.5,0,0],[0.995,0.63,0],[0.72,0.99,0],[0.5,1,0],[0.28,0.99,0]];shape=mxgraph.kubernetes.icon2;kubernetesLabel=1;prIcon=pod" vertex="1" parent="1">
          <mxGeometry x="226.25" y="2486" width="50" height="48" as="geometry" />
        </mxCell>
        <mxCell id="HKxNsVTBjork6PeNNjC3-111" style="edgeStyle=orthogonalEdgeStyle;rounded=0;orthogonalLoop=1;jettySize=auto;html=1;flowAnimation=1;" edge="1" parent="1" source="HKxNsVTBjork6PeNNjC3-98" target="HKxNsVTBjork6PeNNjC3-103">
          <mxGeometry relative="1" as="geometry">
            <Array as="points">
              <mxPoint x="625" y="2610" />
              <mxPoint x="450" y="2610" />
            </Array>
          </mxGeometry>
        </mxCell>
        <mxCell id="HKxNsVTBjork6PeNNjC3-184" style="edgeStyle=orthogonalEdgeStyle;rounded=0;orthogonalLoop=1;jettySize=auto;html=1;" edge="1" parent="1" source="HKxNsVTBjork6PeNNjC3-98" target="HKxNsVTBjork6PeNNjC3-181">
          <mxGeometry relative="1" as="geometry" />
        </mxCell>
        <mxCell id="HKxNsVTBjork6PeNNjC3-98" value="" style="aspect=fixed;sketch=0;html=1;dashed=0;whitespace=wrap;verticalLabelPosition=bottom;verticalAlign=top;fillColor=#f8cecc;strokeColor=#b85450;points=[[0.005,0.63,0],[0.1,0.2,0],[0.9,0.2,0],[0.5,0,0],[0.995,0.63,0],[0.72,0.99,0],[0.5,1,0],[0.28,0.99,0]];shape=mxgraph.kubernetes.icon2;kubernetesLabel=1;prIcon=pod" vertex="1" parent="1">
          <mxGeometry x="600" y="2486" width="50" height="48" as="geometry" />
        </mxCell>
        <mxCell id="HKxNsVTBjork6PeNNjC3-99" value="app:mongo-express" style="rounded=0;whiteSpace=wrap;html=1;fillColor=#fff2cc;strokeColor=#d6b656;rotation=-15;" vertex="1" parent="1">
          <mxGeometry x="196.25" y="2470" width="110" height="20" as="geometry" />
        </mxCell>
        <mxCell id="HKxNsVTBjork6PeNNjC3-100" value="app:mongo-express" style="rounded=0;whiteSpace=wrap;html=1;fillColor=#fff2cc;strokeColor=#d6b656;rotation=-15;" vertex="1" parent="1">
          <mxGeometry x="560" y="2480" width="110" height="20" as="geometry" />
        </mxCell>
        <mxCell id="HKxNsVTBjork6PeNNjC3-107" style="edgeStyle=orthogonalEdgeStyle;rounded=0;orthogonalLoop=1;jettySize=auto;html=1;flowAnimation=1;" edge="1" parent="1" source="HKxNsVTBjork6PeNNjC3-103" target="HKxNsVTBjork6PeNNjC3-105">
          <mxGeometry relative="1" as="geometry" />
        </mxCell>
        <mxCell id="HKxNsVTBjork6PeNNjC3-109" style="edgeStyle=orthogonalEdgeStyle;rounded=0;orthogonalLoop=1;jettySize=auto;html=1;entryX=1;entryY=0;entryDx=0;entryDy=0;flowAnimation=1;" edge="1" parent="1" source="HKxNsVTBjork6PeNNjC3-103" target="HKxNsVTBjork6PeNNjC3-106">
          <mxGeometry relative="1" as="geometry" />
        </mxCell>
        <mxCell id="HKxNsVTBjork6PeNNjC3-103" value="2.2.2.2&lt;br&gt;domain&lt;br&gt;nodeport" style="aspect=fixed;sketch=0;html=1;dashed=0;whitespace=wrap;verticalLabelPosition=bottom;verticalAlign=top;fillColor=#2875E2;strokeColor=#ffffff;points=[[0.005,0.63,0],[0.1,0.2,0],[0.9,0.2,0],[0.5,0,0],[0.995,0.63,0],[0.72,0.99,0],[0.5,1,0],[0.28,0.99,0]];shape=mxgraph.kubernetes.icon2;kubernetesLabel=1;prIcon=svc" vertex="1" parent="1">
          <mxGeometry x="408.33" y="2690" width="83.33" height="80" as="geometry" />
        </mxCell>
        <mxCell id="HKxNsVTBjork6PeNNjC3-104" value="app:mongo" style="rounded=0;whiteSpace=wrap;html=1;fillColor=#fff2cc;strokeColor=#d6b656;rotation=-15;" vertex="1" parent="1">
          <mxGeometry x="213.75" y="2790" width="62.5" height="20" as="geometry" />
        </mxCell>
        <mxCell id="HKxNsVTBjork6PeNNjC3-105" value="app:mongo" style="rounded=0;whiteSpace=wrap;html=1;fillColor=#fff2cc;strokeColor=#d6b656;rotation=-15;" vertex="1" parent="1">
          <mxGeometry x="137.92000000000002" y="2790" width="62.5" height="20" as="geometry" />
        </mxCell>
        <mxCell id="HKxNsVTBjork6PeNNjC3-106" value="app:mongo" style="rounded=0;whiteSpace=wrap;html=1;fillColor=#fff2cc;strokeColor=#d6b656;rotation=-15;" vertex="1" parent="1">
          <mxGeometry x="537.5" y="2796" width="62.5" height="20" as="geometry" />
        </mxCell>
        <mxCell id="HKxNsVTBjork6PeNNjC3-108" style="edgeStyle=orthogonalEdgeStyle;rounded=0;orthogonalLoop=1;jettySize=auto;html=1;entryX=0.62;entryY=0.17;entryDx=0;entryDy=0;entryPerimeter=0;flowAnimation=1;" edge="1" parent="1" source="HKxNsVTBjork6PeNNjC3-103" target="HKxNsVTBjork6PeNNjC3-104">
          <mxGeometry relative="1" as="geometry" />
        </mxCell>
        <mxCell id="HKxNsVTBjork6PeNNjC3-112" value="node:32000" style="ellipse;whiteSpace=wrap;html=1;aspect=fixed;" vertex="1" parent="1">
          <mxGeometry x="45" y="2670" width="65" height="65" as="geometry" />
        </mxCell>
        <mxCell id="HKxNsVTBjork6PeNNjC3-113" style="edgeStyle=orthogonalEdgeStyle;rounded=0;orthogonalLoop=1;jettySize=auto;html=1;entryX=0.1;entryY=0.2;entryDx=0;entryDy=0;entryPerimeter=0;flowAnimation=1;" edge="1" parent="1" source="HKxNsVTBjork6PeNNjC3-112" target="HKxNsVTBjork6PeNNjC3-103">
          <mxGeometry relative="1" as="geometry" />
        </mxCell>
        <mxCell id="HKxNsVTBjork6PeNNjC3-117" style="edgeStyle=orthogonalEdgeStyle;rounded=0;orthogonalLoop=1;jettySize=auto;html=1;entryX=0.5;entryY=0;entryDx=0;entryDy=0;flowAnimation=1;" edge="1" parent="1" source="HKxNsVTBjork6PeNNjC3-114" target="HKxNsVTBjork6PeNNjC3-99">
          <mxGeometry relative="1" as="geometry">
            <Array as="points">
              <mxPoint x="249" y="2440" />
            </Array>
          </mxGeometry>
        </mxCell>
        <mxCell id="HKxNsVTBjork6PeNNjC3-114" value="nodeport" style="aspect=fixed;sketch=0;html=1;dashed=0;whitespace=wrap;verticalLabelPosition=bottom;verticalAlign=top;fillColor=#2875E2;strokeColor=#ffffff;points=[[0.005,0.63,0],[0.1,0.2,0],[0.9,0.2,0],[0.5,0,0],[0.995,0.63,0],[0.72,0.99,0],[0.5,1,0],[0.28,0.99,0]];shape=mxgraph.kubernetes.icon2;kubernetesLabel=1;prIcon=svc" vertex="1" parent="1">
          <mxGeometry x="429.16999999999996" y="2430" width="41.67" height="40" as="geometry" />
        </mxCell>
        <mxCell id="HKxNsVTBjork6PeNNjC3-116" style="edgeStyle=orthogonalEdgeStyle;rounded=0;orthogonalLoop=1;jettySize=auto;html=1;flowAnimation=1;" edge="1" parent="1" target="HKxNsVTBjork6PeNNjC3-114">
          <mxGeometry relative="1" as="geometry">
            <mxPoint x="60.000000000000455" y="2409.9999999999995" as="sourcePoint" />
            <Array as="points">
              <mxPoint x="26" y="2410" />
              <mxPoint x="450" y="2410" />
            </Array>
          </mxGeometry>
        </mxCell>
        <mxCell id="HKxNsVTBjork6PeNNjC3-118" style="edgeStyle=orthogonalEdgeStyle;rounded=0;orthogonalLoop=1;jettySize=auto;html=1;entryX=0.679;entryY=0.134;entryDx=0;entryDy=0;entryPerimeter=0;flowAnimation=1;" edge="1" parent="1" source="HKxNsVTBjork6PeNNjC3-114" target="HKxNsVTBjork6PeNNjC3-100">
          <mxGeometry relative="1" as="geometry">
            <Array as="points">
              <mxPoint x="632" y="2440" />
            </Array>
          </mxGeometry>
        </mxCell>
        <mxCell id="HKxNsVTBjork6PeNNjC3-122" value="k8s services" style="rounded=1;whiteSpace=wrap;html=1;" vertex="1" parent="1">
          <mxGeometry x="330" y="3310" width="120" height="60" as="geometry" />
        </mxCell>
        <mxCell id="HKxNsVTBjork6PeNNjC3-123" value="clusterip" style="rounded=0;whiteSpace=wrap;html=1;" vertex="1" parent="1">
          <mxGeometry x="80.42" y="3420" width="120" height="60" as="geometry" />
        </mxCell>
        <mxCell id="HKxNsVTBjork6PeNNjC3-124" value="loadbalacer" style="rounded=0;whiteSpace=wrap;html=1;" vertex="1" parent="1">
          <mxGeometry x="550" y="3420" width="120" height="60" as="geometry" />
        </mxCell>
        <mxCell id="HKxNsVTBjork6PeNNjC3-125" value="nodeport" style="rounded=0;whiteSpace=wrap;html=1;" vertex="1" parent="1">
          <mxGeometry x="320" y="3420" width="120" height="60" as="geometry" />
        </mxCell>
        <mxCell id="HKxNsVTBjork6PeNNjC3-126" value="external name&amp;nbsp;" style="rounded=0;whiteSpace=wrap;html=1;" vertex="1" parent="1">
          <mxGeometry x="710" y="3420" width="120" height="60" as="geometry" />
        </mxCell>
        <mxCell id="HKxNsVTBjork6PeNNjC3-129" value="" style="edgeStyle=orthogonalEdgeStyle;rounded=0;orthogonalLoop=1;jettySize=auto;html=1;flowAnimation=1;" edge="1" parent="1" source="HKxNsVTBjork6PeNNjC3-130" target="HKxNsVTBjork6PeNNjC3-128">
          <mxGeometry relative="1" as="geometry" />
        </mxCell>
        <mxCell id="HKxNsVTBjork6PeNNjC3-127" value="" style="aspect=fixed;sketch=0;html=1;dashed=0;whitespace=wrap;verticalLabelPosition=bottom;verticalAlign=top;fillColor=#2875E2;strokeColor=#ffffff;points=[[0.005,0.63,0],[0.1,0.2,0],[0.9,0.2,0],[0.5,0,0],[0.995,0.63,0],[0.72,0.99,0],[0.5,1,0],[0.28,0.99,0]];shape=mxgraph.kubernetes.icon2;kubernetesLabel=1;prIcon=pod" vertex="1" parent="1">
          <mxGeometry x="19.170000000000016" y="3540" width="50" height="48" as="geometry" />
        </mxCell>
        <mxCell id="HKxNsVTBjork6PeNNjC3-128" value="" style="aspect=fixed;sketch=0;html=1;dashed=0;whitespace=wrap;verticalLabelPosition=bottom;verticalAlign=top;fillColor=#d5e8d4;strokeColor=#82b366;points=[[0.005,0.63,0],[0.1,0.2,0],[0.9,0.2,0],[0.5,0,0],[0.995,0.63,0],[0.72,0.99,0],[0.5,1,0],[0.28,0.99,0]];shape=mxgraph.kubernetes.icon2;kubernetesLabel=1;prIcon=pod" vertex="1" parent="1">
          <mxGeometry x="213.75000000000003" y="3540" width="50" height="48" as="geometry" />
        </mxCell>
        <mxCell id="HKxNsVTBjork6PeNNjC3-131" value="" style="edgeStyle=orthogonalEdgeStyle;rounded=0;orthogonalLoop=1;jettySize=auto;html=1;flowAnimation=1;" edge="1" parent="1" source="HKxNsVTBjork6PeNNjC3-127" target="HKxNsVTBjork6PeNNjC3-130">
          <mxGeometry relative="1" as="geometry">
            <mxPoint x="69" y="3564" as="sourcePoint" />
            <mxPoint x="160" y="3564" as="targetPoint" />
          </mxGeometry>
        </mxCell>
        <mxCell id="HKxNsVTBjork6PeNNjC3-130" value="" style="aspect=fixed;sketch=0;html=1;dashed=0;whitespace=wrap;verticalLabelPosition=bottom;verticalAlign=top;fillColor=#eeeeee;strokeColor=#36393d;points=[[0.005,0.63,0],[0.1,0.2,0],[0.9,0.2,0],[0.5,0,0],[0.995,0.63,0],[0.72,0.99,0],[0.5,1,0],[0.28,0.99,0]];shape=mxgraph.kubernetes.icon2;kubernetesLabel=1;prIcon=svc" vertex="1" parent="1">
          <mxGeometry x="110" y="3540" width="50" height="48" as="geometry" />
        </mxCell>
        <mxCell id="HKxNsVTBjork6PeNNjC3-132" value="" style="shape=mxgraph.mockup.markup.redX;fillColor=#ff0000;html=1;shadow=0;whiteSpace=wrap;strokeColor=none;" vertex="1" parent="1">
          <mxGeometry x="120" y="3520" width="30" height="20" as="geometry" />
        </mxCell>
        <mxCell id="HKxNsVTBjork6PeNNjC3-133" value="" style="shape=mxgraph.mockup.markup.redX;fillColor=#ff0000;html=1;shadow=0;whiteSpace=wrap;strokeColor=none;" vertex="1" parent="1">
          <mxGeometry x="120" y="3588" width="30" height="20" as="geometry" />
        </mxCell>
        <mxCell id="HKxNsVTBjork6PeNNjC3-134" value="" style="outlineConnect=0;dashed=0;verticalLabelPosition=bottom;verticalAlign=top;align=center;html=1;shape=mxgraph.aws3.lambda_function;fillColor=#F58534;gradientColor=none;" vertex="1" parent="1">
          <mxGeometry x="120.83" y="3640" width="28.33" height="30" as="geometry" />
        </mxCell>
        <mxCell id="HKxNsVTBjork6PeNNjC3-135" style="edgeStyle=orthogonalEdgeStyle;rounded=0;orthogonalLoop=1;jettySize=auto;html=1;entryX=0.533;entryY=0.457;entryDx=0;entryDy=0;entryPerimeter=0;flowAnimation=1;" edge="1" parent="1" source="HKxNsVTBjork6PeNNjC3-134" target="HKxNsVTBjork6PeNNjC3-133">
          <mxGeometry relative="1" as="geometry" />
        </mxCell>
        <mxCell id="HKxNsVTBjork6PeNNjC3-136" value="" style="edgeStyle=orthogonalEdgeStyle;rounded=0;orthogonalLoop=1;jettySize=auto;html=1;flowAnimation=1;" edge="1" parent="1" source="HKxNsVTBjork6PeNNjC3-140" target="HKxNsVTBjork6PeNNjC3-138">
          <mxGeometry relative="1" as="geometry" />
        </mxCell>
        <mxCell id="HKxNsVTBjork6PeNNjC3-137" value="" style="aspect=fixed;sketch=0;html=1;dashed=0;whitespace=wrap;verticalLabelPosition=bottom;verticalAlign=top;fillColor=#2875E2;strokeColor=#ffffff;points=[[0.005,0.63,0],[0.1,0.2,0],[0.9,0.2,0],[0.5,0,0],[0.995,0.63,0],[0.72,0.99,0],[0.5,1,0],[0.28,0.99,0]];shape=mxgraph.kubernetes.icon2;kubernetesLabel=1;prIcon=pod" vertex="1" parent="1">
          <mxGeometry x="285.42" y="3543" width="50" height="48" as="geometry" />
        </mxCell>
        <mxCell id="HKxNsVTBjork6PeNNjC3-138" value="" style="aspect=fixed;sketch=0;html=1;dashed=0;whitespace=wrap;verticalLabelPosition=bottom;verticalAlign=top;fillColor=#d5e8d4;strokeColor=#82b366;points=[[0.005,0.63,0],[0.1,0.2,0],[0.9,0.2,0],[0.5,0,0],[0.995,0.63,0],[0.72,0.99,0],[0.5,1,0],[0.28,0.99,0]];shape=mxgraph.kubernetes.icon2;kubernetesLabel=1;prIcon=pod" vertex="1" parent="1">
          <mxGeometry x="480" y="3543" width="50" height="48" as="geometry" />
        </mxCell>
        <mxCell id="HKxNsVTBjork6PeNNjC3-139" value="" style="edgeStyle=orthogonalEdgeStyle;rounded=0;orthogonalLoop=1;jettySize=auto;html=1;flowAnimation=1;" edge="1" parent="1" source="HKxNsVTBjork6PeNNjC3-137" target="HKxNsVTBjork6PeNNjC3-140">
          <mxGeometry relative="1" as="geometry">
            <mxPoint x="335.25" y="3567" as="sourcePoint" />
            <mxPoint x="426.25" y="3567" as="targetPoint" />
          </mxGeometry>
        </mxCell>
        <mxCell id="HKxNsVTBjork6PeNNjC3-140" value="" style="aspect=fixed;sketch=0;html=1;dashed=0;whitespace=wrap;verticalLabelPosition=bottom;verticalAlign=top;fillColor=#eeeeee;strokeColor=#36393d;points=[[0.005,0.63,0],[0.1,0.2,0],[0.9,0.2,0],[0.5,0,0],[0.995,0.63,0],[0.72,0.99,0],[0.5,1,0],[0.28,0.99,0]];shape=mxgraph.kubernetes.icon2;kubernetesLabel=1;prIcon=svc" vertex="1" parent="1">
          <mxGeometry x="376.25" y="3543" width="50" height="48" as="geometry" />
        </mxCell>
        <mxCell id="HKxNsVTBjork6PeNNjC3-141" value="" style="shape=mxgraph.mockup.markup.redX;fillColor=#ff0000;html=1;shadow=0;whiteSpace=wrap;strokeColor=none;" vertex="1" parent="1">
          <mxGeometry x="386.25" y="3523" width="30" height="20" as="geometry" />
        </mxCell>
        <mxCell id="HKxNsVTBjork6PeNNjC3-143" value="" style="outlineConnect=0;dashed=0;verticalLabelPosition=bottom;verticalAlign=top;align=center;html=1;shape=mxgraph.aws3.lambda_function;fillColor=#F58534;gradientColor=none;" vertex="1" parent="1">
          <mxGeometry x="387.08" y="3643" width="28.33" height="30" as="geometry" />
        </mxCell>
        <mxCell id="HKxNsVTBjork6PeNNjC3-144" style="edgeStyle=orthogonalEdgeStyle;rounded=0;orthogonalLoop=1;jettySize=auto;html=1;entryX=0.533;entryY=0.457;entryDx=0;entryDy=0;entryPerimeter=0;flowAnimation=1;" edge="1" parent="1" source="HKxNsVTBjork6PeNNjC3-143">
          <mxGeometry relative="1" as="geometry">
            <mxPoint x="402.24000000000024" y="3600.1400000000003" as="targetPoint" />
          </mxGeometry>
        </mxCell>
        <mxCell id="HKxNsVTBjork6PeNNjC3-145" value="port" style="text;html=1;align=center;verticalAlign=middle;whiteSpace=wrap;rounded=0;" vertex="1" parent="1">
          <mxGeometry x="369.17" y="3591" width="60" height="10" as="geometry" />
        </mxCell>
        <mxCell id="HKxNsVTBjork6PeNNjC3-146" value="" style="edgeStyle=orthogonalEdgeStyle;rounded=0;orthogonalLoop=1;jettySize=auto;html=1;flowAnimation=1;" edge="1" parent="1" source="HKxNsVTBjork6PeNNjC3-150" target="HKxNsVTBjork6PeNNjC3-148">
          <mxGeometry relative="1" as="geometry" />
        </mxCell>
        <mxCell id="HKxNsVTBjork6PeNNjC3-148" value="" style="aspect=fixed;sketch=0;html=1;dashed=0;whitespace=wrap;verticalLabelPosition=bottom;verticalAlign=top;fillColor=#d5e8d4;strokeColor=#82b366;points=[[0.005,0.63,0],[0.1,0.2,0],[0.9,0.2,0],[0.5,0,0],[0.995,0.63,0],[0.72,0.99,0],[0.5,1,0],[0.28,0.99,0]];shape=mxgraph.kubernetes.icon2;kubernetesLabel=1;prIcon=pod" vertex="1" parent="1">
          <mxGeometry x="672.92" y="3540" width="50" height="48" as="geometry" />
        </mxCell>
        <mxCell id="HKxNsVTBjork6PeNNjC3-150" value="" style="aspect=fixed;sketch=0;html=1;dashed=0;whitespace=wrap;verticalLabelPosition=bottom;verticalAlign=top;fillColor=#eeeeee;strokeColor=#36393d;points=[[0.005,0.63,0],[0.1,0.2,0],[0.9,0.2,0],[0.5,0,0],[0.995,0.63,0],[0.72,0.99,0],[0.5,1,0],[0.28,0.99,0]];shape=mxgraph.kubernetes.icon2;kubernetesLabel=1;prIcon=svc" vertex="1" parent="1">
          <mxGeometry x="569.17" y="3540" width="50" height="48" as="geometry" />
        </mxCell>
        <mxCell id="HKxNsVTBjork6PeNNjC3-152" value="" style="outlineConnect=0;dashed=0;verticalLabelPosition=bottom;verticalAlign=top;align=center;html=1;shape=mxgraph.aws3.lambda_function;fillColor=#F58534;gradientColor=none;" vertex="1" parent="1">
          <mxGeometry x="580" y="3640" width="28.33" height="30" as="geometry" />
        </mxCell>
        <mxCell id="HKxNsVTBjork6PeNNjC3-153" style="edgeStyle=orthogonalEdgeStyle;rounded=0;orthogonalLoop=1;jettySize=auto;html=1;entryX=0.533;entryY=0.457;entryDx=0;entryDy=0;entryPerimeter=0;flowAnimation=1;" edge="1" parent="1" source="HKxNsVTBjork6PeNNjC3-152">
          <mxGeometry relative="1" as="geometry">
            <mxPoint x="595.1600000000002" y="3597.1400000000003" as="targetPoint" />
          </mxGeometry>
        </mxCell>
        <mxCell id="HKxNsVTBjork6PeNNjC3-154" value="ip" style="text;html=1;align=center;verticalAlign=middle;whiteSpace=wrap;rounded=0;" vertex="1" parent="1">
          <mxGeometry x="562.09" y="3588" width="60" height="10" as="geometry" />
        </mxCell>
        <mxCell id="HKxNsVTBjork6PeNNjC3-155" value="" style="edgeStyle=orthogonalEdgeStyle;rounded=0;orthogonalLoop=1;jettySize=auto;html=1;flowAnimation=1;" edge="1" parent="1" source="HKxNsVTBjork6PeNNjC3-157" target="HKxNsVTBjork6PeNNjC3-156">
          <mxGeometry relative="1" as="geometry" />
        </mxCell>
        <mxCell id="HKxNsVTBjork6PeNNjC3-156" value="" style="aspect=fixed;sketch=0;html=1;dashed=0;whitespace=wrap;verticalLabelPosition=bottom;verticalAlign=top;fillColor=#d5e8d4;strokeColor=#82b366;points=[[0.005,0.63,0],[0.1,0.2,0],[0.9,0.2,0],[0.5,0,0],[0.995,0.63,0],[0.72,0.99,0],[0.5,1,0],[0.28,0.99,0]];shape=mxgraph.kubernetes.icon2;kubernetesLabel=1;prIcon=pod" vertex="1" parent="1">
          <mxGeometry x="789.9999999999999" y="3670" width="50" height="48" as="geometry" />
        </mxCell>
        <mxCell id="HKxNsVTBjork6PeNNjC3-157" value="" style="aspect=fixed;sketch=0;html=1;dashed=0;whitespace=wrap;verticalLabelPosition=bottom;verticalAlign=top;fillColor=#eeeeee;strokeColor=#36393d;points=[[0.005,0.63,0],[0.1,0.2,0],[0.9,0.2,0],[0.5,0,0],[0.995,0.63,0],[0.72,0.99,0],[0.5,1,0],[0.28,0.99,0]];shape=mxgraph.kubernetes.icon2;kubernetesLabel=1;prIcon=svc" vertex="1" parent="1">
          <mxGeometry x="737.0799999999999" y="3533" width="50" height="48" as="geometry" />
        </mxCell>
        <mxCell id="HKxNsVTBjork6PeNNjC3-158" value="" style="outlineConnect=0;dashed=0;verticalLabelPosition=bottom;verticalAlign=top;align=center;html=1;shape=mxgraph.aws3.lambda_function;fillColor=#F58534;gradientColor=none;" vertex="1" parent="1">
          <mxGeometry x="747.91" y="3633" width="28.33" height="30" as="geometry" />
        </mxCell>
        <mxCell id="HKxNsVTBjork6PeNNjC3-159" style="edgeStyle=orthogonalEdgeStyle;rounded=0;orthogonalLoop=1;jettySize=auto;html=1;entryX=0.533;entryY=0.457;entryDx=0;entryDy=0;entryPerimeter=0;flowAnimation=1;" edge="1" parent="1" source="HKxNsVTBjork6PeNNjC3-158">
          <mxGeometry relative="1" as="geometry">
            <mxPoint x="763.0700000000002" y="3590.1400000000003" as="targetPoint" />
          </mxGeometry>
        </mxCell>
        <mxCell id="HKxNsVTBjork6PeNNjC3-160" value="domain.com" style="text;html=1;align=center;verticalAlign=middle;whiteSpace=wrap;rounded=0;" vertex="1" parent="1">
          <mxGeometry x="730" y="3581" width="60" height="10" as="geometry" />
        </mxCell>
        <mxCell id="HKxNsVTBjork6PeNNjC3-163" value="" style="edgeStyle=orthogonalEdgeStyle;rounded=0;orthogonalLoop=1;jettySize=auto;html=1;flowAnimation=1;" edge="1" parent="1" source="HKxNsVTBjork6PeNNjC3-175" target="HKxNsVTBjork6PeNNjC3-165">
          <mxGeometry relative="1" as="geometry" />
        </mxCell>
        <mxCell id="HKxNsVTBjork6PeNNjC3-164" value="" style="aspect=fixed;sketch=0;html=1;dashed=0;whitespace=wrap;verticalLabelPosition=bottom;verticalAlign=top;fillColor=#2875E2;strokeColor=#ffffff;points=[[0.005,0.63,0],[0.1,0.2,0],[0.9,0.2,0],[0.5,0,0],[0.995,0.63,0],[0.72,0.99,0],[0.5,1,0],[0.28,0.99,0]];shape=mxgraph.kubernetes.icon2;kubernetesLabel=1;prIcon=pod" vertex="1" parent="1">
          <mxGeometry x="64.17" y="3809.2" width="135" height="129.6" as="geometry" />
        </mxCell>
        <mxCell id="HKxNsVTBjork6PeNNjC3-165" value="" style="aspect=fixed;sketch=0;html=1;dashed=0;whitespace=wrap;verticalLabelPosition=bottom;verticalAlign=top;fillColor=#d5e8d4;strokeColor=#82b366;points=[[0.005,0.63,0],[0.1,0.2,0],[0.9,0.2,0],[0.5,0,0],[0.995,0.63,0],[0.72,0.99,0],[0.5,1,0],[0.28,0.99,0]];shape=mxgraph.kubernetes.icon2;kubernetesLabel=1;prIcon=pod" vertex="1" parent="1">
          <mxGeometry x="623.3399999999999" y="3819" width="114.58" height="110" as="geometry" />
        </mxCell>
        <mxCell id="HKxNsVTBjork6PeNNjC3-166" value="" style="edgeStyle=orthogonalEdgeStyle;rounded=0;orthogonalLoop=1;jettySize=auto;html=1;flowAnimation=1;" edge="1" parent="1" source="HKxNsVTBjork6PeNNjC3-164">
          <mxGeometry relative="1" as="geometry">
            <mxPoint x="274.83" y="3874" as="sourcePoint" />
            <mxPoint x="290" y="3874" as="targetPoint" />
          </mxGeometry>
        </mxCell>
        <mxCell id="HKxNsVTBjork6PeNNjC3-167" value="" style="aspect=fixed;sketch=0;html=1;dashed=0;whitespace=wrap;verticalLabelPosition=bottom;verticalAlign=top;fillColor=#eeeeee;strokeColor=#36393d;points=[[0.005,0.63,0],[0.1,0.2,0],[0.9,0.2,0],[0.5,0,0],[0.995,0.63,0],[0.72,0.99,0],[0.5,1,0],[0.28,0.99,0]];shape=mxgraph.kubernetes.icon2;kubernetesLabel=1;prIcon=svc" vertex="1" parent="1">
          <mxGeometry x="308.75" y="3839" width="72.92" height="70" as="geometry" />
        </mxCell>
        <mxCell id="HKxNsVTBjork6PeNNjC3-169" value="" style="outlineConnect=0;dashed=0;verticalLabelPosition=bottom;verticalAlign=top;align=center;html=1;shape=mxgraph.aws3.lambda_function;fillColor=#F58534;gradientColor=none;" vertex="1" parent="1">
          <mxGeometry x="315.41" y="4020" width="53.34" height="50" as="geometry" />
        </mxCell>
        <mxCell id="HKxNsVTBjork6PeNNjC3-170" style="edgeStyle=orthogonalEdgeStyle;rounded=0;orthogonalLoop=1;jettySize=auto;html=1;entryX=0.533;entryY=0.457;entryDx=0;entryDy=0;entryPerimeter=0;flowAnimation=1;" edge="1" parent="1" source="HKxNsVTBjork6PeNNjC3-169">
          <mxGeometry relative="1" as="geometry">
            <mxPoint x="341.8200000000002" y="3907.1400000000003" as="targetPoint" />
          </mxGeometry>
        </mxCell>
        <mxCell id="HKxNsVTBjork6PeNNjC3-171" value="port" style="text;html=1;align=center;verticalAlign=middle;whiteSpace=wrap;rounded=0;" vertex="1" parent="1">
          <mxGeometry x="308.75" y="3898" width="60" height="10" as="geometry" />
        </mxCell>
        <mxCell id="HKxNsVTBjork6PeNNjC3-174" value="port: 6000" style="rounded=1;whiteSpace=wrap;html=1;" vertex="1" parent="1">
          <mxGeometry x="290" y="3859" width="30" height="30" as="geometry" />
        </mxCell>
        <mxCell id="HKxNsVTBjork6PeNNjC3-176" value="" style="edgeStyle=orthogonalEdgeStyle;rounded=0;orthogonalLoop=1;jettySize=auto;html=1;flowAnimation=1;" edge="1" parent="1" source="HKxNsVTBjork6PeNNjC3-167" target="HKxNsVTBjork6PeNNjC3-175">
          <mxGeometry relative="1" as="geometry">
            <mxPoint x="382" y="3874" as="sourcePoint" />
            <mxPoint x="623" y="3874" as="targetPoint" />
          </mxGeometry>
        </mxCell>
        <mxCell id="HKxNsVTBjork6PeNNjC3-175" value="targetPort&lt;br&gt;27017" style="rounded=1;whiteSpace=wrap;html=1;" vertex="1" parent="1">
          <mxGeometry x="560" y="3859" width="62.09" height="30" as="geometry" />
        </mxCell>
        <mxCell id="HKxNsVTBjork6PeNNjC3-177" value="nodePort:&lt;br&gt;32000" style="rounded=1;whiteSpace=wrap;html=1;" vertex="1" parent="1">
          <mxGeometry x="311.88" y="3909" width="53.75" height="41" as="geometry" />
        </mxCell>
        <mxCell id="HKxNsVTBjork6PeNNjC3-178" value="svc internal ip&lt;br&gt;or name" style="rounded=0;whiteSpace=wrap;html=1;" vertex="1" parent="1">
          <mxGeometry x="200" y="3800" width="80.83" height="31" as="geometry" />
        </mxCell>
        <mxCell id="HKxNsVTBjork6PeNNjC3-179" value="labels" style="rounded=0;whiteSpace=wrap;html=1;" vertex="1" parent="1">
          <mxGeometry x="415.40999999999997" y="3809.2" width="80.83" height="31" as="geometry" />
        </mxCell>
        <mxCell id="HKxNsVTBjork6PeNNjC3-180" value="node ip" style="rounded=0;whiteSpace=wrap;html=1;" vertex="1" parent="1">
          <mxGeometry x="240" y="3970" width="80.83" height="31" as="geometry" />
        </mxCell>
        <mxCell id="HKxNsVTBjork6PeNNjC3-181" value="3 data&amp;nbsp; &amp;nbsp; &amp;nbsp; &amp;nbsp; &amp;nbsp; &amp;nbsp; &amp;nbsp; &amp;nbsp;" style="aspect=fixed;sketch=0;html=1;dashed=0;whitespace=wrap;verticalLabelPosition=bottom;verticalAlign=top;fillColor=#2875E2;strokeColor=#ffffff;points=[[0.005,0.63,0],[0.1,0.2,0],[0.9,0.2,0],[0.5,0,0],[0.995,0.63,0],[0.72,0.99,0],[0.5,1,0],[0.28,0.99,0]];shape=mxgraph.kubernetes.icon2;kubernetesLabel=1;prIcon=cm" vertex="1" parent="1">
          <mxGeometry x="710" y="2570" width="93.75" height="90" as="geometry" />
        </mxCell>
        <mxCell id="HKxNsVTBjork6PeNNjC3-182" style="edgeStyle=orthogonalEdgeStyle;rounded=0;orthogonalLoop=1;jettySize=auto;html=1;entryX=0.5;entryY=1;entryDx=0;entryDy=0;entryPerimeter=0;" edge="1" parent="1" source="HKxNsVTBjork6PeNNjC3-92" target="HKxNsVTBjork6PeNNjC3-181">
          <mxGeometry relative="1" as="geometry" />
        </mxCell>
        <mxCell id="HKxNsVTBjork6PeNNjC3-183" value="container init" style="edgeLabel;html=1;align=center;verticalAlign=middle;resizable=0;points=[];" vertex="1" connectable="0" parent="HKxNsVTBjork6PeNNjC3-182">
          <mxGeometry x="0.6746" y="3" relative="1" as="geometry">
            <mxPoint as="offset" />
          </mxGeometry>
        </mxCell>
        <mxCell id="HKxNsVTBjork6PeNNjC3-186" value="2" style="aspect=fixed;sketch=0;html=1;dashed=0;whitespace=wrap;verticalLabelPosition=bottom;verticalAlign=top;fillColor=#2875E2;strokeColor=#ffffff;points=[[0.005,0.63,0],[0.1,0.2,0],[0.9,0.2,0],[0.5,0,0],[0.995,0.63,0],[0.72,0.99,0],[0.5,1,0],[0.28,0.99,0]];shape=mxgraph.kubernetes.icon2;kubernetesLabel=1;prIcon=secret" vertex="1" parent="1">
          <mxGeometry x="106.67" y="2560" width="72.92" height="70" as="geometry" />
        </mxCell>
        <mxCell id="HKxNsVTBjork6PeNNjC3-187" style="edgeStyle=orthogonalEdgeStyle;rounded=0;orthogonalLoop=1;jettySize=auto;html=1;entryX=0.5;entryY=0;entryDx=0;entryDy=0;entryPerimeter=0;" edge="1" parent="1" source="HKxNsVTBjork6PeNNjC3-97" target="HKxNsVTBjork6PeNNjC3-186">
          <mxGeometry relative="1" as="geometry" />
        </mxCell>
      </root>
    </mxGraphModel>
  </diagram>
</mxfile>
